<svg width="152" height="94" viewBox="0 0 152 94" fill="none" xmlns="http://www.w3.org/2000/svg">
<path d="M18.8376 34.3279H17.0436L16.6016 30.9999H2.76957L2.35357 34.3279H0.55957V28.7119H2.58757C2.74357 28.5213 2.97757 28.0879 3.28957 27.4119C3.6189 26.7186 3.93957 25.7392 4.25157 24.4739C4.5809 23.1912 4.85824 21.5879 5.08357 19.6639C5.3089 17.7399 5.4129 15.4519 5.39557 12.7999H16.2376V28.7119H18.8376V34.3279ZM13.6376 28.7119V15.0879H7.78757C7.71824 16.9252 7.60557 18.5719 7.44957 20.0279C7.3109 21.4666 7.1289 22.7406 6.90357 23.8499C6.69557 24.9592 6.4529 25.9126 6.17557 26.7099C5.91557 27.5072 5.63824 28.1746 5.34357 28.7119H13.6376Z" fill="#1D1D1D"/>
<path d="M21.8881 12.7999H32.8861V15.0359H24.4881V20.5739H32.1581V22.8099H24.4881V28.7639H33.0161V30.9999H21.8881V12.7999Z" fill="#1D1D1D"/>
<path d="M53.6837 21.8999C53.6837 20.4092 53.8657 19.0833 54.2297 17.9219C54.611 16.7433 55.1483 15.7552 55.8417 14.9579C56.5523 14.1432 57.4103 13.5279 58.4157 13.1119C59.4383 12.6786 60.591 12.4619 61.8737 12.4619C63.243 12.4619 64.439 12.6959 65.4617 13.1639C66.5017 13.6146 67.3597 14.2559 68.0357 15.0879C68.729 15.9026 69.2403 16.8906 69.5697 18.0519C69.9163 19.2132 70.0897 20.4959 70.0897 21.8999C70.0897 23.3906 69.899 24.7252 69.5177 25.9039C69.1537 27.0652 68.6163 28.0532 67.9057 28.8679C67.195 29.6652 66.3283 30.2806 65.3057 30.7139C64.3003 31.1299 63.1563 31.3379 61.8737 31.3379C60.487 31.3379 59.2823 31.1126 58.2597 30.6619C57.237 30.1939 56.3877 29.5526 55.7117 28.7379C55.0357 27.9059 54.5243 26.9092 54.1777 25.7479C53.8483 24.5866 53.6837 23.3039 53.6837 21.8999ZM56.4397 21.8999C56.4397 22.8879 56.5437 23.8152 56.7517 24.6819C56.977 25.5486 57.3063 26.3112 57.7397 26.9699C58.1903 27.6286 58.7537 28.1486 59.4297 28.5299C60.123 28.9112 60.9377 29.1019 61.8737 29.1019C63.555 29.1019 64.881 28.5212 65.8517 27.3599C66.8397 26.1986 67.3337 24.3786 67.3337 21.8999C67.3337 20.9292 67.221 20.0106 66.9957 19.1439C66.7877 18.2772 66.4583 17.5146 66.0077 16.8559C65.5743 16.1972 65.011 15.6772 64.3177 15.2959C63.6417 14.8972 62.827 14.6979 61.8737 14.6979C60.2097 14.6979 58.8837 15.2872 57.8957 16.4659C56.925 17.6446 56.4397 19.4559 56.4397 21.8999Z" fill="#1D1D1D"/>
<path d="M73.9135 12.9819C74.6415 12.8259 75.4302 12.7219 76.2795 12.6699C77.1462 12.6006 77.9955 12.5659 78.8275 12.5659C79.7115 12.5659 80.6042 12.6439 81.5055 12.7999C82.4242 12.9559 83.2562 13.2419 84.0015 13.6579C84.7468 14.0739 85.3535 14.6546 85.8215 15.3999C86.3068 16.1279 86.5495 17.0726 86.5495 18.2339C86.5495 19.3259 86.3328 20.2619 85.8995 21.0419C85.4662 21.8046 84.8855 22.4286 84.1575 22.9139C83.4468 23.3992 82.6235 23.7546 81.6875 23.9799C80.7688 24.2052 79.8155 24.3179 78.8275 24.3179C78.7235 24.3179 78.5588 24.3179 78.3335 24.3179C78.1255 24.3006 77.9002 24.2919 77.6575 24.2919C77.4322 24.2746 77.2068 24.2572 76.9815 24.2399C76.7735 24.2226 76.6175 24.2052 76.5135 24.1879V30.9999H73.9135V12.9819ZM78.9055 14.8019C78.4375 14.8019 77.9782 14.8106 77.5275 14.8279C77.0942 14.8452 76.7562 14.8886 76.5135 14.9579V21.9519C76.6002 21.9866 76.7388 22.0126 76.9295 22.0299C77.1375 22.0299 77.3455 22.0386 77.5535 22.0559C77.7788 22.0732 77.9868 22.0819 78.1775 22.0819C78.3855 22.0819 78.5415 22.0819 78.6455 22.0819C79.2695 22.0819 79.8848 22.0386 80.4915 21.9519C81.0982 21.8479 81.6442 21.6573 82.1295 21.3799C82.6322 21.1026 83.0308 20.7126 83.3255 20.2099C83.6375 19.7072 83.7935 19.0572 83.7935 18.2599C83.7935 17.5666 83.6462 16.9946 83.3515 16.5439C83.0568 16.0932 82.6755 15.7379 82.2075 15.4779C81.7395 15.2179 81.2108 15.0446 80.6215 14.9579C80.0495 14.8539 79.4775 14.8019 78.9055 14.8019Z" fill="#1D1D1D"/>
<path d="M65.0167 43.0879H59.2967C59.2101 44.8039 59.1061 46.3639 58.9847 47.7679C58.8807 49.1719 58.7421 50.446 58.5687 51.59C58.3954 52.7166 58.1874 53.7133 57.9447 54.58C57.7194 55.4466 57.4334 56.2006 57.0867 56.842C56.6361 57.674 56.1161 58.2633 55.5267 58.61C54.9374 58.9566 54.3221 59.13 53.6807 59.13C53.3167 59.13 53.0134 59.104 52.7707 59.052C52.5454 59.0173 52.3114 58.9566 52.0687 58.87L52.4067 56.686C52.6147 56.738 52.8227 56.764 53.0307 56.764C53.2387 56.764 53.4467 56.7293 53.6547 56.66C53.8801 56.5733 54.0967 56.4433 54.3047 56.27C54.5127 56.0793 54.7121 55.8193 54.9027 55.49C55.1627 55.0393 55.4054 54.4326 55.6307 53.67C55.8561 52.9073 56.0554 51.9366 56.2287 50.758C56.4021 49.5793 56.5407 48.1753 56.6447 46.5459C56.7661 44.8993 56.8527 42.9839 56.9047 40.7999H67.6167V59H65.0167V43.0879Z" fill="#1D1D1D"/>
<path d="M74.8349 48.5739H78.2149C78.4055 45.9739 79.1682 43.9719 80.5029 42.5679C81.8376 41.1639 83.6922 40.4619 86.0669 40.4619C87.4362 40.4619 88.6149 40.6872 89.6029 41.1379C90.5909 41.5886 91.3969 42.2299 92.0209 43.0619C92.6449 43.8939 93.1042 44.8906 93.3989 46.0519C93.6935 47.2133 93.8409 48.4959 93.8409 49.8999C93.8409 52.8986 93.1822 55.2213 91.8649 56.868C90.5649 58.5146 88.6322 59.338 86.0669 59.338C84.7842 59.338 83.6662 59.1386 82.7129 58.74C81.7596 58.324 80.9536 57.752 80.2949 57.024C79.6536 56.2786 79.1595 55.386 78.8129 54.346C78.4662 53.306 78.2582 52.1446 78.1889 50.862H74.8349V59H72.2349V40.7999H74.8349V48.5739ZM80.9709 49.8999C80.9709 50.8706 81.0575 51.798 81.2309 52.682C81.4215 53.5486 81.7162 54.3113 82.1149 54.97C82.5136 55.6286 83.0335 56.1486 83.6749 56.53C84.3335 56.9113 85.1309 57.102 86.0669 57.102C87.7482 57.102 89.0049 56.5213 89.8369 55.36C90.6689 54.1986 91.0849 52.3786 91.0849 49.8999C91.0849 48.9466 90.9982 48.0366 90.8249 47.1699C90.6689 46.2859 90.3915 45.5146 89.9929 44.8559C89.6116 44.1973 89.1002 43.6773 88.4589 43.2959C87.8176 42.8973 87.0202 42.6979 86.0669 42.6979C84.3855 42.6979 83.1115 43.2873 82.2449 44.4659C81.3955 45.6446 80.9709 47.4559 80.9709 49.8999Z" fill="#1D1D1D"/>
<path d="M101.525 50.732H100.251V59H97.6508V40.7999H100.251V49.1719L101.447 48.8079L107.999 40.7999H110.963L104.411 48.5999L103.189 49.4839L104.619 50.524L111.847 59H108.571L101.525 50.732Z" fill="#1D1D1D"/>
<path d="M127.786 58.22C127.214 58.636 126.486 58.922 125.602 59.078C124.718 59.2513 123.782 59.338 122.794 59.338C121.633 59.338 120.524 59.156 119.466 58.792C118.426 58.4106 117.508 57.8386 116.71 57.076C115.913 56.296 115.28 55.3166 114.812 54.138C114.344 52.942 114.11 51.5293 114.11 49.8999C114.11 48.2013 114.37 46.7539 114.89 45.5579C115.41 44.3619 116.086 43.3913 116.918 42.6459C117.75 41.8833 118.686 41.3286 119.726 40.9819C120.766 40.6352 121.798 40.4619 122.82 40.4619C123.964 40.4619 124.9 40.5226 125.628 40.6439C126.356 40.7652 126.972 40.9212 127.474 41.1119L126.902 43.3479C126.053 42.9493 124.762 42.7499 123.028 42.7499C122.248 42.7499 121.486 42.8799 120.74 43.1399C120.012 43.3826 119.354 43.7899 118.764 44.3619C118.192 44.9166 117.733 45.6533 117.386 46.5719C117.04 47.4733 116.866 48.5826 116.866 49.8999C116.866 51.0786 117.031 52.1186 117.36 53.02C117.69 53.904 118.14 54.6493 118.712 55.256C119.302 55.8453 119.986 56.296 120.766 56.608C121.564 56.9026 122.43 57.05 123.366 57.05C124.216 57.05 124.952 56.972 125.576 56.816C126.2 56.66 126.729 56.4606 127.162 56.218L127.786 58.22Z" fill="#1D1D1D"/>
<path d="M50 0H151V3H50V0Z" fill="#B90000"/>
<path d="M148 1H151V72H148V1Z" fill="#B90000"/>
<path d="M37 69H150V72H37V69Z" fill="#B90000"/>
<path d="M37 39H40V70H37V39Z" fill="#B90000"/>
<path d="M40.874 22.932H39.6V31.2H37V13H39.6V21.372L40.796 21.008L47.348 13H50.312L43.76 20.8L42.538 21.684L43.968 22.724L51.196 31.2H47.92L40.874 22.932Z" fill="#B90000"/>
<path d="M37 0H39.5L39.6 17.0557L37 17V0Z" fill="#B90000"/>
<path d="M37.5083 78.8H42.5163V79.904H38.7083V83.344C38.8576 83.312 39.039 83.28 39.2523 83.248C39.4763 83.216 39.6896 83.2 39.8923 83.2C40.3403 83.2 40.7616 83.2534 41.1563 83.36C41.551 83.456 41.8923 83.6267 42.1803 83.872C42.479 84.1174 42.7136 84.4534 42.8843 84.88C43.055 85.296 43.1403 85.824 43.1403 86.464C43.1403 87.104 43.055 87.6587 42.8843 88.128C42.7243 88.5867 42.495 88.9654 42.1963 89.264C41.9083 89.552 41.5616 89.7707 41.1563 89.92C40.751 90.0587 40.303 90.128 39.8123 90.128C39.663 90.128 39.487 90.1227 39.2843 90.1121C39.0923 90.1121 38.8896 90.1014 38.6763 90.08C38.4736 90.0694 38.2656 90.048 38.0523 90.016C37.8496 89.984 37.6683 89.9467 37.5083 89.904V78.8ZM38.7083 88.928C38.8256 88.9707 39.0016 88.9974 39.2363 89.008C39.4816 89.0187 39.711 89.024 39.9243 89.024C40.5003 89.024 40.9696 88.8374 41.3323 88.464C41.695 88.0907 41.8763 87.4987 41.8763 86.688C41.8763 86.176 41.8176 85.7654 41.7003 85.456C41.5936 85.136 41.4443 84.8907 41.2523 84.72C41.0603 84.5494 40.831 84.4374 40.5643 84.384C40.3083 84.3307 40.031 84.304 39.7323 84.304C39.6576 84.304 39.5723 84.3094 39.4763 84.32C39.3803 84.3307 39.279 84.3414 39.1723 84.352C39.0763 84.3627 38.9856 84.3787 38.9003 84.4C38.815 84.4214 38.751 84.4374 38.7083 84.448V88.928Z" fill="#1D1D1D"/>
<path d="M44.4733 82.48C44.7826 82.288 45.156 82.1387 45.5933 82.032C46.0413 81.9254 46.5106 81.872 47.0013 81.872C47.4493 81.872 47.8066 81.9414 48.0733 82.08C48.3506 82.208 48.564 82.3894 48.7133 82.624C48.8733 82.848 48.9746 83.1094 49.0173 83.408C49.0706 83.696 49.0973 84 49.0973 84.32C49.0973 84.96 49.0813 85.584 49.0493 86.192C49.028 86.8 49.0173 87.376 49.0173 87.92C49.0173 88.3254 49.028 88.704 49.0493 89.056C49.0813 89.3974 49.1346 89.7227 49.2093 90.032H48.3293L48.0573 89.088H47.9933C47.8333 89.3654 47.5986 89.6054 47.2893 89.808C46.98 90.0107 46.564 90.1121 46.0413 90.1121C45.4653 90.1121 44.9906 89.9147 44.6173 89.5201C44.2546 89.1147 44.0733 88.56 44.0733 87.856C44.0733 87.3974 44.148 87.0134 44.2973 86.704C44.4573 86.3947 44.676 86.144 44.9533 85.952C45.2413 85.76 45.5773 85.6267 45.9613 85.552C46.356 85.4667 46.7933 85.424 47.2733 85.424C47.38 85.424 47.4866 85.424 47.5933 85.424C47.7 85.424 47.812 85.4294 47.9293 85.44C47.9613 85.1094 47.9773 84.816 47.9773 84.56C47.9773 83.952 47.8866 83.5254 47.7053 83.28C47.524 83.0347 47.1933 82.912 46.7133 82.912C46.4146 82.912 46.0893 82.96 45.7373 83.056C45.3853 83.1414 45.092 83.2534 44.8573 83.392L44.4733 82.48ZM47.9453 86.352C47.8386 86.3414 47.732 86.336 47.6253 86.336C47.5186 86.3254 47.412 86.32 47.3053 86.32C47.0493 86.32 46.7986 86.3414 46.5533 86.384C46.308 86.4267 46.0893 86.5014 45.8973 86.608C45.7053 86.7147 45.5506 86.8587 45.4333 87.04C45.3266 87.2214 45.2733 87.4507 45.2733 87.728C45.2733 88.1547 45.3746 88.4854 45.5773 88.72C45.7906 88.9547 46.0626 89.072 46.3933 89.072C46.8413 89.072 47.188 88.9654 47.4333 88.752C47.6786 88.5387 47.8493 88.304 47.9453 88.048V86.352Z" fill="#1D1D1D"/>
<path d="M54.7676 83.04H52.1116V90H50.9596V82H54.7676V83.04Z" fill="#1D1D1D"/>
<path d="M60.2904 89.456C60.0344 89.6907 59.7091 89.872 59.3144 90C58.9198 90.128 58.5038 90.192 58.0664 90.192C57.5651 90.192 57.1278 90.096 56.7544 89.904C56.3918 89.7014 56.0878 89.4187 55.8424 89.056C55.6078 88.6827 55.4318 88.24 55.3144 87.728C55.2078 87.216 55.1544 86.64 55.1544 86C55.1544 84.6347 55.4051 83.5947 55.9064 82.88C56.4078 82.1654 57.1171 81.808 58.0344 81.808C58.3331 81.808 58.6264 81.8454 58.9144 81.92C59.2131 81.9947 59.4798 82.144 59.7144 82.368C59.9491 82.592 60.1358 82.9067 60.2744 83.312C60.4238 83.7174 60.4984 84.2454 60.4984 84.896C60.4984 85.0774 60.4878 85.2747 60.4664 85.488C60.4558 85.6907 60.4398 85.904 60.4184 86.128H56.3544C56.3544 86.5867 56.3918 87.0027 56.4664 87.376C56.5411 87.7494 56.6584 88.0694 56.8184 88.3361C56.9784 88.592 57.1811 88.7947 57.4264 88.944C57.6824 89.0827 57.9971 89.1521 58.3704 89.1521C58.6584 89.1521 58.9411 89.0987 59.2184 88.992C59.5064 88.8854 59.7251 88.7574 59.8744 88.608L60.2904 89.456ZM59.3944 85.168C59.4158 84.368 59.3038 83.7814 59.0584 83.408C58.8131 83.0347 58.4771 82.848 58.0504 82.848C57.5598 82.848 57.1704 83.0347 56.8824 83.408C56.5944 83.7814 56.4238 84.368 56.3704 85.168H59.3944Z" fill="#1D1D1D"/>
<path d="M66.2757 83.04H64.3077V90H63.1557V83.04H61.1877V82H66.2757V83.04Z" fill="#1D1D1D"/>
<path d="M71.1608 86.432H68.3928V90H67.2408V82H68.3928V85.392H71.1608V82H72.3128V90H71.1608V86.432Z" fill="#1D1D1D"/>
<path d="M74.0982 82.48C74.4075 82.288 74.7809 82.1387 75.2182 82.032C75.6662 81.9254 76.1355 81.872 76.6262 81.872C77.0742 81.872 77.4315 81.9414 77.6982 82.08C77.9755 82.208 78.1889 82.3894 78.3382 82.624C78.4982 82.848 78.5995 83.1094 78.6422 83.408C78.6955 83.696 78.7222 84 78.7222 84.32C78.7222 84.96 78.7062 85.584 78.6742 86.192C78.6529 86.8 78.6422 87.376 78.6422 87.92C78.6422 88.3254 78.6529 88.704 78.6742 89.056C78.7062 89.3974 78.7595 89.7227 78.8342 90.032H77.9542L77.6822 89.088H77.6182C77.4582 89.3654 77.2235 89.6054 76.9142 89.808C76.6049 90.0107 76.1889 90.1121 75.6662 90.1121C75.0902 90.1121 74.6155 89.9147 74.2422 89.5201C73.8795 89.1147 73.6982 88.56 73.6982 87.856C73.6982 87.3974 73.7729 87.0134 73.9222 86.704C74.0822 86.3947 74.3009 86.144 74.5782 85.952C74.8662 85.76 75.2022 85.6267 75.5862 85.552C75.9809 85.4667 76.4182 85.424 76.8982 85.424C77.0049 85.424 77.1115 85.424 77.2182 85.424C77.3249 85.424 77.4369 85.4294 77.5542 85.44C77.5862 85.1094 77.6022 84.816 77.6022 84.56C77.6022 83.952 77.5115 83.5254 77.3302 83.28C77.1489 83.0347 76.8182 82.912 76.3382 82.912C76.0395 82.912 75.7142 82.96 75.3622 83.056C75.0102 83.1414 74.7169 83.2534 74.4822 83.392L74.0982 82.48ZM77.5702 86.352C77.4635 86.3414 77.3569 86.336 77.2502 86.336C77.1435 86.3254 77.0369 86.32 76.9302 86.32C76.6742 86.32 76.4235 86.3414 76.1782 86.384C75.9329 86.4267 75.7142 86.5014 75.5222 86.608C75.3302 86.7147 75.1755 86.8587 75.0582 87.04C74.9515 87.2214 74.8982 87.4507 74.8982 87.728C74.8982 88.1547 74.9995 88.4854 75.2022 88.72C75.4155 88.9547 75.6875 89.072 76.0182 89.072C76.4662 89.072 76.8129 88.9654 77.0582 88.752C77.3035 88.5387 77.4742 88.304 77.5702 88.048V86.352Z" fill="#1D1D1D"/>
<path d="M83.8326 86.688L82.8566 86.88L81.2406 90H79.8806L81.3685 87.248L81.8806 86.672C81.4432 86.5867 81.0699 86.3627 80.7606 86C80.4619 85.6374 80.3125 85.1467 80.3125 84.528C80.3125 83.568 80.5686 82.8747 81.0806 82.448C81.6032 82.0214 82.3125 81.808 83.2085 81.808C83.5392 81.808 83.8486 81.8347 84.1366 81.888C84.4352 81.9307 84.7179 81.984 84.9846 82.048V90H83.8326V86.688ZM83.8326 85.952V82.992C83.7259 82.9387 83.6032 82.9014 83.4646 82.88C83.3259 82.8587 83.2032 82.848 83.0965 82.848C82.5846 82.848 82.1899 82.9814 81.9126 83.248C81.6459 83.5147 81.5126 83.92 81.5126 84.464C81.5126 84.9547 81.6672 85.3387 81.9766 85.616C82.2859 85.8827 82.6965 86.0054 83.2085 85.984L83.8326 85.952Z" fill="#1D1D1D"/>
<path d="M95.4747 85.248L95.5867 83.728H95.5227L95.0427 85.088L93.5547 88.16H93.1387L91.5867 85.088L91.1547 83.728H91.0747L91.2027 85.232V90H90.1627V82H91.3147L93.0587 85.472L93.4107 86.512H93.4427L93.8267 85.44L95.4427 82H96.6267V90H95.4747V85.248Z" fill="#1D1D1D"/>
<path d="M98.4421 82.48C98.7514 82.288 99.1247 82.1387 99.562 82.032C100.01 81.9254 100.479 81.872 100.97 81.872C101.418 81.872 101.775 81.9414 102.042 82.08C102.319 82.208 102.533 82.3894 102.682 82.624C102.842 82.848 102.943 83.1094 102.986 83.408C103.039 83.696 103.066 84 103.066 84.32C103.066 84.96 103.05 85.584 103.018 86.192C102.997 86.8 102.986 87.376 102.986 87.92C102.986 88.3254 102.997 88.704 103.018 89.056C103.05 89.3974 103.103 89.7227 103.178 90.032H102.298L102.026 89.088H101.962C101.802 89.3654 101.567 89.6054 101.258 89.808C100.949 90.0107 100.533 90.1121 100.01 90.1121C99.4341 90.1121 98.9594 89.9147 98.5861 89.5201C98.2234 89.1147 98.042 88.56 98.042 87.856C98.042 87.3974 98.1167 87.0134 98.2661 86.704C98.4261 86.3947 98.6447 86.144 98.9221 85.952C99.2101 85.76 99.546 85.6267 99.93 85.552C100.325 85.4667 100.762 85.424 101.242 85.424C101.349 85.424 101.455 85.424 101.562 85.424C101.669 85.424 101.781 85.4294 101.898 85.44C101.93 85.1094 101.946 84.816 101.946 84.56C101.946 83.952 101.855 83.5254 101.674 83.28C101.493 83.0347 101.162 82.912 100.682 82.912C100.383 82.912 100.058 82.96 99.7061 83.056C99.3541 83.1414 99.0607 83.2534 98.826 83.392L98.4421 82.48ZM101.914 86.352C101.807 86.3414 101.701 86.336 101.594 86.336C101.487 86.3254 101.381 86.32 101.274 86.32C101.018 86.32 100.767 86.3414 100.522 86.384C100.277 86.4267 100.058 86.5014 99.8661 86.608C99.6741 86.7147 99.5194 86.8587 99.4021 87.04C99.2954 87.2214 99.2421 87.4507 99.2421 87.728C99.2421 88.1547 99.3434 88.4854 99.5461 88.72C99.7594 88.9547 100.031 89.072 100.362 89.072C100.81 89.072 101.157 88.9654 101.402 88.752C101.647 88.5387 101.818 88.304 101.914 88.048V86.352Z" fill="#1D1D1D"/>
<path d="M109.344 89.6C109.078 89.8027 108.774 89.952 108.432 90.048C108.091 90.144 107.734 90.192 107.36 90.192C106.848 90.192 106.416 90.096 106.064 89.904C105.712 89.7014 105.424 89.4187 105.2 89.056C104.987 88.6827 104.827 88.24 104.72 87.728C104.624 87.2054 104.576 86.6294 104.576 86C104.576 84.6347 104.816 83.5947 105.296 82.88C105.787 82.1654 106.486 81.808 107.392 81.808C107.808 81.808 108.166 81.8454 108.464 81.92C108.763 81.9947 109.019 82.0907 109.232 82.208L108.912 83.216C108.486 82.9707 108.022 82.848 107.52 82.848C106.944 82.848 106.507 83.104 106.208 83.616C105.92 84.1174 105.776 84.912 105.776 86C105.776 86.4374 105.808 86.848 105.872 87.232C105.936 87.616 106.043 87.952 106.192 88.24C106.342 88.5174 106.534 88.7414 106.768 88.912C107.003 89.072 107.296 89.1521 107.648 89.1521C107.926 89.1521 108.182 89.104 108.416 89.008C108.662 88.912 108.859 88.8 109.008 88.672L109.344 89.6Z" fill="#1D1D1D"/>
<path d="M114.635 83.04H112.667V90H111.515V83.04H109.547V82H114.635V83.04Z" fill="#1D1D1D"/>
<path d="M120.197 89.456C119.941 89.6907 119.615 89.872 119.221 90C118.826 90.128 118.41 90.192 117.973 90.192C117.471 90.192 117.034 90.096 116.661 89.904C116.298 89.7014 115.994 89.4187 115.749 89.056C115.514 88.6827 115.338 88.24 115.221 87.728C115.114 87.216 115.061 86.64 115.061 86C115.061 84.6347 115.311 83.5947 115.813 82.88C116.314 82.1654 117.023 81.808 117.941 81.808C118.239 81.808 118.533 81.8454 118.821 81.92C119.119 81.9947 119.386 82.144 119.621 82.368C119.855 82.592 120.042 82.9067 120.181 83.312C120.33 83.7174 120.405 84.2454 120.405 84.896C120.405 85.0774 120.394 85.2747 120.373 85.488C120.362 85.6907 120.346 85.904 120.325 86.128H116.261C116.261 86.5867 116.298 87.0027 116.373 87.376C116.447 87.7494 116.565 88.0694 116.725 88.3361C116.885 88.592 117.087 88.7947 117.333 88.944C117.589 89.0827 117.903 89.1521 118.277 89.1521C118.565 89.1521 118.847 89.0987 119.125 88.992C119.413 88.8854 119.631 88.7574 119.781 88.608L120.197 89.456ZM119.301 85.168C119.322 84.368 119.21 83.7814 118.965 83.408C118.719 83.0347 118.383 82.848 117.957 82.848C117.466 82.848 117.077 83.0347 116.789 83.408C116.501 83.7814 116.33 84.368 116.277 85.168H119.301Z" fill="#1D1D1D"/>
<path d="M122.022 82H122.838L123.014 82.864H123.078C123.473 82.16 124.091 81.808 124.934 81.808C125.777 81.808 126.406 82.1227 126.822 82.752C127.249 83.3814 127.462 84.4107 127.462 85.84C127.462 86.512 127.393 87.12 127.254 87.664C127.115 88.1974 126.918 88.656 126.662 89.04C126.406 89.4134 126.091 89.7014 125.718 89.904C125.355 90.096 124.95 90.192 124.502 90.192C124.193 90.192 123.947 90.1707 123.766 90.128C123.585 90.096 123.387 90.0214 123.174 89.904V93.2H122.022V82ZM123.174 88.736C123.323 88.864 123.489 88.9654 123.67 89.04C123.862 89.1147 124.113 89.1521 124.422 89.1521C124.987 89.1521 125.435 88.864 125.766 88.288C126.097 87.712 126.262 86.8907 126.262 85.824C126.262 85.376 126.23 84.9707 126.166 84.608C126.113 84.2454 126.022 83.936 125.894 83.68C125.766 83.4134 125.601 83.2107 125.398 83.072C125.206 82.9227 124.966 82.848 124.678 82.848C123.899 82.848 123.398 83.3227 123.174 84.272V88.736Z" fill="#1D1D1D"/>
<path d="M133.391 89.6C133.125 89.8027 132.821 89.952 132.479 90.048C132.138 90.144 131.781 90.192 131.407 90.192C130.895 90.192 130.463 90.096 130.111 89.904C129.759 89.7014 129.471 89.4187 129.247 89.056C129.034 88.6827 128.874 88.24 128.767 87.728C128.671 87.2054 128.623 86.6294 128.623 86C128.623 84.6347 128.863 83.5947 129.343 82.88C129.834 82.1654 130.533 81.808 131.439 81.808C131.855 81.808 132.213 81.8454 132.511 81.92C132.81 81.9947 133.066 82.0907 133.279 82.208L132.959 83.216C132.533 82.9707 132.069 82.848 131.567 82.848C130.991 82.848 130.554 83.104 130.255 83.616C129.967 84.1174 129.823 84.912 129.823 86C129.823 86.4374 129.855 86.848 129.919 87.232C129.983 87.616 130.09 87.952 130.239 88.24C130.389 88.5174 130.581 88.7414 130.815 88.912C131.05 89.072 131.343 89.1521 131.695 89.1521C131.973 89.1521 132.229 89.104 132.463 89.008C132.709 88.912 132.906 88.8 133.055 88.672L133.391 89.6Z" fill="#1D1D1D"/>
<path d="M136.422 86.4H135.83V90H134.678V82H135.83V85.616L136.374 85.392L138.326 82H139.558L137.654 85.216L137.094 85.744L137.782 86.384L139.83 90H138.454L136.422 86.4Z" fill="#1D1D1D"/>
<path d="M140.786 82.48C141.095 82.288 141.468 82.1387 141.906 82.032C142.354 81.9254 142.823 81.872 143.314 81.872C143.762 81.872 144.119 81.9414 144.386 82.08C144.663 82.208 144.876 82.3894 145.026 82.624C145.186 82.848 145.287 83.1094 145.33 83.408C145.383 83.696 145.41 84 145.41 84.32C145.41 84.96 145.394 85.584 145.362 86.192C145.34 86.8 145.33 87.376 145.33 87.92C145.33 88.3254 145.34 88.704 145.362 89.056C145.394 89.3974 145.447 89.7227 145.522 90.032H144.642L144.37 89.088H144.306C144.146 89.3654 143.911 89.6054 143.602 89.808C143.292 90.0107 142.876 90.1121 142.354 90.1121C141.778 90.1121 141.303 89.9147 140.93 89.5201C140.567 89.1147 140.386 88.56 140.386 87.856C140.386 87.3974 140.46 87.0134 140.61 86.704C140.77 86.3947 140.988 86.144 141.266 85.952C141.554 85.76 141.89 85.6267 142.274 85.552C142.668 85.4667 143.106 85.424 143.586 85.424C143.692 85.424 143.799 85.424 143.906 85.424C144.012 85.424 144.124 85.4294 144.242 85.44C144.274 85.1094 144.29 84.816 144.29 84.56C144.29 83.952 144.199 83.5254 144.018 83.28C143.836 83.0347 143.506 82.912 143.026 82.912C142.727 82.912 142.402 82.96 142.05 83.056C141.698 83.1414 141.404 83.2534 141.17 83.392L140.786 82.48ZM144.258 86.352C144.151 86.3414 144.044 86.336 143.938 86.336C143.831 86.3254 143.724 86.32 143.618 86.32C143.362 86.32 143.111 86.3414 142.866 86.384C142.62 86.4267 142.402 86.5014 142.21 86.608C142.018 86.7147 141.863 86.8587 141.746 87.04C141.639 87.2214 141.586 87.4507 141.586 87.728C141.586 88.1547 141.687 88.4854 141.89 88.72C142.103 88.9547 142.375 89.072 142.706 89.072C143.154 89.072 143.5 88.9654 143.746 88.752C143.991 88.5387 144.162 88.304 144.258 88.048V86.352Z" fill="#1D1D1D"/>
<path d="M150.52 86.688L149.544 86.88L147.928 90H146.568L148.056 87.248L148.568 86.672C148.131 86.5867 147.757 86.3627 147.448 86C147.149 85.6374 147 85.1467 147 84.528C147 83.568 147.256 82.8747 147.768 82.448C148.291 82.0214 149 81.808 149.896 81.808C150.227 81.808 150.536 81.8347 150.824 81.888C151.123 81.9307 151.405 81.984 151.672 82.048V90H150.52V86.688ZM150.52 85.952V82.992C150.413 82.9387 150.291 82.9014 150.152 82.88C150.013 82.8587 149.891 82.848 149.784 82.848C149.272 82.848 148.877 82.9814 148.6 83.248C148.333 83.5147 148.2 83.92 148.2 84.464C148.2 84.9547 148.355 85.3387 148.664 85.616C148.973 85.8827 149.384 86.0054 149.896 85.984L150.52 85.952Z" fill="#1D1D1D"/>
</svg>
