<svg width="9" height="11" viewBox="0 0 9 11" fill="none" xmlns="http://www.w3.org/2000/svg">
<path d="M2.896 8.392H5.712V9.08H2.896V11H1.984V9.08H0.72V8.392H1.984V6.856H0.72V6.104H1.984V0.36H4.16C5.46133 0.36 6.45333 0.626666 7.136 1.16C7.81867 1.68267 8.16 2.48267 8.16 3.56C8.16 4.70133 7.79733 5.53867 7.072 6.072C6.35733 6.59467 5.376 6.856 4.128 6.856H2.896V8.392ZM2.896 1.112V6.104H4.128C5.10933 6.104 5.86667 5.912 6.4 5.528C6.944 5.144 7.216 4.49333 7.216 3.576C7.216 2.70133 6.95467 2.072 6.432 1.688C5.92 1.304 5.16267 1.112 4.16 1.112H2.896Z" fill="#1D1D1D"/>
</svg>
