<svg width="46" height="66" viewBox="0 0 46 66" fill="none" xmlns="http://www.w3.org/2000/svg">
<path d="M24.7186 47.8907L27.0191 46.0588L24.0787 46.1086C23.989 46.1101 23.8842 46.1167 23.8157 46.1207C23.731 46.1256 23.6816 46.1279 23.6519 46.1279C11.4273 46.1279 1.40481 36.2168 1.40481 24.0085C1.40481 11.7788 11.0699 1.88916 23.2709 1.88916C35.4538 1.88916 44.8816 11.756 44.8816 23.9934V23.9934V23.9935V23.9935V23.9935V23.9936V23.9936V23.9937V23.9937V23.9937V23.9938V23.9938V23.9938V23.9939V23.9939V23.994V23.994V23.994V23.9941V23.9941V23.9941V23.9942V23.9942V23.9943V23.9943V23.9943V23.9944V23.9944V23.9944V23.9945V23.9945V23.9945V23.9946V23.9946V23.9947V23.9947V23.9947V23.9948V23.9948V23.9948V23.9949V23.9949V23.9949V23.995V23.995V23.9951V23.9951V23.9951V23.9952V23.9952V23.9952V23.9953V23.9953V23.9953V23.9954V23.9954V23.9954V23.9955V23.9955V23.9956V23.9956V23.9956V23.9957V23.9957V23.9957V23.9958V23.9958V23.9958V23.9959V23.9959V23.9959V23.996V23.996V23.996V23.9961V23.9961V23.9961V23.9962V23.9962V23.9963V23.9963V23.9963V23.9964V23.9964V23.9964V23.9965V23.9965V23.9965V23.9966V23.9966V23.9966V23.9967V23.9967V23.9967V23.9968V23.9968V23.9968V23.9969V23.9969V23.9969V23.997V23.997V23.997V23.9971V23.9971V23.9971V23.9972V23.9972V23.9972V23.9973V23.9973V23.9973V23.9974V23.9974V23.9974V23.9975V23.9975V23.9975V23.9976V23.9976V23.9976V23.9977V23.9977V23.9977V23.9978V23.9978V23.9978V23.9979V23.9979V23.9979V23.998V23.998V23.998V23.9981V23.9981V23.9981V23.9981V23.9982V23.9982V23.9982V23.9983V23.9983V23.9983V23.9984V23.9984V23.9984V23.9985V23.9985V23.9985V23.9986V23.9986V23.9986V23.9987V23.9987V23.9987V23.9988V23.9988V23.9988V23.9988V23.9989V23.9989V23.9989V23.999V23.999V23.999V23.9991V23.9991V23.9991V23.9992V23.9992V23.9992V23.9993V23.9993V23.9993V23.9993V23.9994V23.9994V23.9994V23.9995V23.9995V23.9995V23.9996V23.9996V23.9996V23.9997V23.9997V23.9997V23.9997V23.9998V23.9998V23.9998V23.9999V23.9999V23.9999V24V24V24V24.0001V24.0001V24.0002V24.0002V24.0002V24.0003V24.0003V24.0004V24.0004V24.0005V24.0005V24.0006V24.0006V24.0007V24.0007V24.0008V24.0009V24.0009V24.0009V24.001V24.001V24.0011V24.0011V24.0012V24.0013V24.0013V24.0014V24.0014V24.0015V24.0016V24.0016V24.0017V24.0017V24.0018V24.0018V24.0019V24.002V24.002V24.0021V24.0021V24.0022V24.0022V24.0023V24.0023V24.0024V24.0025V24.0025V24.0026V24.0026V24.0027V24.0027V24.0028V24.0028V24.0029V24.003V24.003V24.0031V24.0031V24.0032V24.0032V24.0033V24.0033V24.0034V24.0035V24.0035V24.0036V24.0036V24.0037V24.0037V24.0038V24.0038V24.0039V24.0039V24.004V24.004V24.0041V24.0042V24.0042V24.0043V24.0043V24.0044V24.0044V24.0045V24.0045V24.0046V24.0046V24.0047V24.0047V24.0048V24.0048V24.0049V24.0049V24.005V24.0051V24.0051V24.0052V24.0052V24.0053V24.0053V24.0054V24.0054V24.0055V24.0055V24.0056V24.0056V24.0057V24.0057V24.0058V24.0058V24.0059V24.0059V24.006V24.006V24.0061V24.0061V24.0062V24.0063V24.0063V24.0064V24.0064V24.0065V24.0065V24.0066V24.0066V24.0067V24.0067V24.0068V24.0068V24.0069V24.0069V24.007V24.007V24.0071V24.0071V24.0072V24.0072V24.0073V24.0073V24.0074V24.0074V24.0075V24.0075V24.0076V24.0076V24.0077V24.0077V24.0078V24.0078V24.0079V24.0079V24.008V24.008V24.0081V24.0081V24.0082V24.0082V24.0083V24.0083V24.0084V24.0084V24.0085V24.0085C44.8816 46.1348 27.3743 64.1083 5.27979 64.1104C2.75514 64.1104 1 62.0928 1 59.3305C1 56.6883 3.12765 54.5507 5.76469 54.5507C12.9432 54.5507 19.5031 52.0439 24.7186 47.8907Z" fill="#FBF5EA" stroke="white" stroke-width="2"/>
</svg>
