<svg width="20" height="20" viewBox="0 0 20 20" fill="none" xmlns="http://www.w3.org/2000/svg">
<path d="M10.0391 19.9999C7.74158 19.9999 5.87256 18.1307 5.87256 15.8334V2.91667C5.87256 1.30862 7.18082 0 8.78922 0C10.3974 0 11.7059 1.30862 11.7059 2.91667V14.1666C11.7059 15.0859 10.9582 15.8334 10.0391 15.8334C9.12016 15.8334 8.37248 15.0859 8.37248 14.1666V4.16672H9.20579V14.1666C9.20579 14.6261 9.57963 15.0001 10.0391 15.0001C10.4987 15.0001 10.8726 14.6261 10.8726 14.1666V2.91667C10.8726 1.76809 9.9378 0.833308 8.78922 0.833308C7.64047 0.833308 6.70587 1.76809 6.70587 2.91667V15.8334C6.70587 17.6713 8.20123 19.1666 10.0391 19.1666C11.8771 19.1666 13.3725 17.6713 13.3725 15.8334V4.16672H14.2058V15.8334C14.2058 18.1307 12.3368 19.9999 10.0391 19.9999Z" fill="#1D1D1D"/>
</svg>
