<svg width="29" height="10" viewBox="0 0 29 10" fill="none" xmlns="http://www.w3.org/2000/svg">
<path d="M24.4274 0.148047C24.2367 -0.049349 23.9193 -0.049349 23.7219 0.148047C23.5312 0.338774 23.5312 0.656208 23.7219 0.846491L27.2995 4.42407C27.2995 4.42407 0.769133 4.42363 0.493935 4.42407C0.218736 4.42452 0 4.64325 0 4.91845C0 5.19365 0.218736 5.4195 0.493935 5.4195H27.2995L23.7219 8.99041C23.5312 9.18781 23.5312 9.50568 23.7219 9.69597C23.9193 9.89336 24.2372 9.89336 24.4274 9.69597L28.852 5.27145C29.0493 5.08072 29.0493 4.76329 28.852 4.57301L24.4274 0.148047Z" fill="#1D1D1D"/>
</svg>
