<svg width="20" height="20" viewBox="0 0 20 20" fill="none" xmlns="http://www.w3.org/2000/svg">
<path d="M18.582 9.59836L18.5844 9.61591C18.2532 9.66046 17.9816 9.9136 17.9204 10.2504L16.5913 17.5613C16.5239 17.9327 16.2 18.2026 15.8226 18.2026H4.15787C3.78052 18.2026 3.45657 17.9327 3.38913 17.5613L2.06009 10.2504C1.9989 9.9136 1.72729 9.66046 1.39603 9.61591L1.39847 9.59836C0.82428 9.52328 0.380859 9.03195 0.380859 8.43701C0.380859 7.78973 0.905457 7.26514 1.55273 7.26514H18.4277C19.075 7.26514 19.5996 7.78973 19.5996 8.43701C19.5996 9.03195 19.1562 9.52328 18.582 9.59836ZM14.6777 15.4683V12.3433C14.6777 11.912 14.3277 11.562 13.8965 11.562C13.4648 11.562 13.1152 11.9116 13.1152 12.3433V15.4683C13.1152 15.8999 13.4648 16.2495 13.8965 16.2495C14.3282 16.2495 14.6777 15.8999 14.6777 15.4683ZM10.7715 15.4683V12.3433C10.7715 11.912 10.4214 11.562 9.99023 11.562C9.55856 11.562 9.20898 11.9116 9.20898 12.3433V15.4683C9.20898 15.8999 9.55856 16.2495 9.99023 16.2495C10.4219 16.2495 10.7715 15.8999 10.7715 15.4683ZM6.86523 15.4683V12.3433C6.86523 11.912 6.5152 11.562 6.08398 11.562C5.65231 11.562 5.30273 11.9116 5.30273 12.3433V15.4683C5.30273 15.8999 5.65231 16.2495 6.08398 16.2495C6.51566 16.2495 6.86523 15.8999 6.86523 15.4683Z" fill="#FCFEFD"/>
<path d="M12.2358 2.19803L15.919 7.26517H14.1315L10.8701 2.95731C10.6603 2.57996 10.7963 2.10419 11.1733 1.89484C11.5514 1.68549 12.0272 1.82144 12.2358 2.19803Z" fill="#FDFEFF"/>
<path d="M8.80716 1.89484C9.1842 2.10419 9.32016 2.57996 9.11035 2.95731L5.84894 7.26517H4.06152L7.74469 2.19803C7.95404 1.82144 8.42905 1.68549 8.80716 1.89484Z" fill="white"/>
<path d="M10 9.99951C10.2156 9.99951 10.3906 9.82449 10.3906 9.60889C10.3906 9.39328 10.2156 9.21826 10 9.21826C9.78439 9.21826 9.60938 9.39328 9.60938 9.60889C9.60938 9.82449 9.78439 9.99951 10 9.99951Z" fill="white"/>
<path d="M18.4375 6.87452H16.1275L12.574 1.98576C12.2548 1.43873 11.5517 1.24403 10.9932 1.55332C10.4271 1.86781 10.2235 2.58085 10.5382 3.1471C10.5472 3.16313 10.5571 3.17854 10.5682 3.19319L13.3554 6.87452H6.64459L9.43176 3.19319C9.44275 3.17854 9.45282 3.16313 9.46182 3.1471C9.7757 2.58222 9.57443 1.86857 9.00635 1.55302C8.4491 1.24433 7.74597 1.43888 7.42615 1.98545L3.87253 6.87452H1.5625C0.700989 6.87452 0 7.57551 0 8.43702C0 9.1165 0.440979 9.70808 1.06216 9.91743C1.12839 9.9687 1.21109 9.99952 1.30112 9.99952C1.31912 9.99952 1.33606 10.0006 1.35376 10.003C1.52191 10.0256 1.65512 10.1532 1.68564 10.3201L3.01453 17.6312C3.116 18.1886 3.60092 18.5933 4.16763 18.5933H15.8324C16.3991 18.5933 16.884 18.1886 16.9855 17.6311L18.3144 10.3203C18.3449 10.1532 18.4782 10.0256 18.647 10.003C18.6641 10.0006 18.681 9.99952 18.6989 9.99952C18.7895 9.99952 18.8728 9.9684 18.9391 9.91652C19.5607 9.70579 20 9.11528 20 8.43702C20 7.57551 19.299 6.87452 18.4375 6.87452ZM11.2105 2.74717C11.1212 2.56239 11.1905 2.33732 11.3721 2.23661C11.5611 2.13178 11.7995 2.19938 11.9037 2.38722C11.9113 2.40126 11.92 2.41468 11.9293 2.4275L15.1616 6.87452H14.3352L11.2105 2.74717ZM8.07068 2.42765C8.07999 2.41484 8.08838 2.40156 8.09616 2.38783C8.20068 2.19984 8.43918 2.13209 8.62747 2.23631C8.80936 2.33732 8.87894 2.56208 8.78952 2.74717L5.66483 6.87452H4.83841L8.07068 2.42765ZM18.4375 9.21827H11.5727C11.3873 9.21827 11.2189 9.34263 11.1803 9.52375C11.1256 9.7798 11.3184 9.99952 11.5634 9.99952H17.5932C17.5728 10.0577 17.5566 10.1181 17.5453 10.1803L16.217 17.4914C16.1833 17.6771 16.0217 17.812 15.8328 17.812H4.16763C3.97858 17.812 3.81699 17.6771 3.78311 17.4914L2.45422 10.1803C2.44293 10.1181 2.42676 10.0577 2.40631 9.99952H8.42529C8.62106 9.99952 8.79608 9.86067 8.82401 9.66688C8.85864 9.42533 8.67233 9.21827 8.4375 9.21827H1.5625C1.08597 9.21827 0.714874 8.7924 0.791321 8.31114C0.851746 7.92952 1.19339 7.65577 1.5799 7.65577H18.4193C18.829 7.65577 19.1832 7.96385 19.2162 8.37233C19.2535 8.83573 18.8849 9.21827 18.4375 9.21827Z" fill="white"/>
</svg>
