<svg width="22" height="22" viewBox="0 0 22 22" fill="none" xmlns="http://www.w3.org/2000/svg">
<path d="M14.4806 0H5.51916C2.4759 0 0 2.47601 0 5.51928V14.4807C0 17.5241 2.4759 20 5.51916 20H14.4806C17.5241 20 20 17.524 20 14.4807V5.51928C20.0001 2.47601 17.5241 0 14.4806 0ZM18.2256 14.4807C18.2256 16.5456 16.5456 18.2255 14.4807 18.2255H5.51916C3.45435 18.2256 1.7745 16.5456 1.7745 14.4807V5.51928C1.7745 3.45447 3.45435 1.7745 5.51916 1.7745H14.4806C16.5455 1.7745 18.2255 3.45447 18.2255 5.51928V14.4807H18.2256Z" fill="#1D1D1D"/>
<path d="M9.99993 4.84674C7.15825 4.84674 4.84644 7.15856 4.84644 10.0002C4.84644 12.8418 7.15825 15.1535 9.99993 15.1535C12.8416 15.1535 15.1534 12.8418 15.1534 10.0002C15.1534 7.15856 12.8416 4.84674 9.99993 4.84674ZM9.99993 13.3789C8.13683 13.3789 6.62093 11.8632 6.62093 10.0001C6.62093 8.13689 8.13671 6.62112 9.99993 6.62112C11.8632 6.62112 13.3789 8.13689 13.3789 10.0001C13.3789 11.8632 11.863 13.3789 9.99993 13.3789Z" fill="#1D1D1D"/>
<path d="M15.3697 3.34209C15.0278 3.34209 14.6919 3.4805 14.4505 3.72301C14.2078 3.96434 14.0684 4.30032 14.0684 4.64338C14.0684 4.98539 14.208 5.32124 14.4505 5.56376C14.6918 5.80509 15.0278 5.94468 15.3697 5.94468C15.7127 5.94468 16.0475 5.80509 16.29 5.56376C16.5325 5.32124 16.671 4.98527 16.671 4.64338C16.671 4.30032 16.5325 3.96434 16.29 3.72301C16.0487 3.4805 15.7127 3.34209 15.3697 3.34209Z" fill="#1D1D1D"/>
</svg>
