<svg width="20" height="20" viewBox="0 0 20 20" fill="none" xmlns="http://www.w3.org/2000/svg">
<path d="M18.8355 8.83578C18.8355 3.96371 14.8719 0 9.99985 0C5.12781 0 1.16406 3.96371 1.16406 8.83578C1.16406 9.12519 1.39871 9.35984 1.68813 9.35984C1.97754 9.35984 2.21219 9.12516 2.21219 8.83578C2.21219 4.54164 5.7057 1.04816 9.99981 1.04816C14.2939 1.04816 17.7874 4.54168 17.7874 8.83578C17.7874 13.1298 14.2939 16.6234 9.99981 16.6234H9.09059L10.3907 15.1681C10.5835 14.9523 10.5648 14.6209 10.349 14.4281C10.1332 14.2352 9.8018 14.254 9.60898 14.4698L7.75055 16.5501C7.44633 16.8906 7.44633 17.4042 7.75055 17.7448L9.60898 19.825C9.71254 19.941 9.85594 20 10 20C10.1243 20 10.249 19.956 10.349 19.8668C10.5648 19.6739 10.5835 19.3426 10.3907 19.1268L9.09059 17.6715H9.99981C14.8719 17.6715 18.8355 13.7078 18.8355 8.83578Z" fill="#1D1D1D"/>
</svg>
