<svg width="200" height="200" viewBox="0 0 200 200" fill="none" xmlns="http://www.w3.org/2000/svg">
<path d="M13.638 168.179H45.4568V195.455C45.4568 196.782 45.8814 197.869 46.7357 198.718C47.5876 199.573 48.6767 200 50.0035 200H73.7238C74.9549 200 76.0201 199.573 76.9199 198.718C77.8197 197.869 78.2682 196.782 78.2682 195.455V168.179H150.001C151.325 168.179 152.414 167.757 153.268 166.902C154.123 166.048 154.547 164.961 154.547 163.634V145.452C154.547 144.132 154.123 143.038 153.268 142.189C152.417 141.334 151.325 140.907 150.001 140.907H78.2658V124.145H126.561C145.5 124.145 160.957 118.374 172.939 106.816C184.917 95.2704 190.909 80.3561 190.909 62.0724C190.909 43.8009 184.917 28.8861 172.939 17.3286C160.959 5.78248 145.499 0 126.561 0H50.0011C48.674 0 47.5872 0.426952 46.7333 1.27654C45.8814 2.13084 45.4544 3.22469 45.4544 4.54436V93.8931H13.638C12.3113 93.8931 11.2241 94.342 10.3702 95.2414C9.51865 96.1412 9.09131 97.2064 9.09131 98.437V119.6C9.09131 120.927 9.51591 122.014 10.3702 122.868C11.2245 123.723 12.3089 124.144 13.638 124.144H45.4568V140.906H13.638C12.3113 140.906 11.2241 141.334 10.3702 142.189C9.51865 143.038 9.09131 144.13 9.09131 145.451V163.634C9.09131 164.961 9.51591 166.048 10.3702 166.902C11.2241 167.757 12.3109 168.179 13.638 168.179ZM78.2658 30.2587H123.72C133.757 30.2587 141.852 33.1933 148.01 39.0644C154.164 44.9359 157.242 52.6089 157.242 62.0747C157.242 71.5453 154.164 79.2207 148.01 85.0851C141.852 90.9613 133.757 93.8958 123.72 93.8958H78.2658V30.2587Z" fill="#FBF5EA"/>
</svg>
