<svg width="27" height="15" viewBox="0 0 27 15" fill="none" xmlns="http://www.w3.org/2000/svg">
<path fill-rule="evenodd" clip-rule="evenodd" d="M22.8122 9.53768C23.6915 10.3961 24.6195 11.2038 25.4081 12.1487C25.7564 12.5687 26.0862 13.002 26.3385 13.4894C26.696 14.1822 26.3722 14.9445 25.751 14.9859L21.8895 14.9842C20.8936 15.0668 20.0991 14.6658 19.431 13.9849C18.8964 13.4403 18.4013 12.8608 17.8872 12.2978C17.6765 12.0678 17.4559 11.8513 17.1924 11.6801C16.6652 11.338 16.2077 11.4427 15.9064 11.9925C15.5996 12.5517 15.53 13.1709 15.4999 13.7941C15.4585 14.7034 15.1837 14.9424 14.2703 14.9841C12.3183 15.0761 10.4658 14.7808 8.74485 13.7961C7.2276 12.928 6.05105 11.7025 5.02698 10.3151C3.03311 7.61357 1.50619 4.645 0.133865 1.59327C-0.175036 0.905713 0.0508698 0.536635 0.809492 0.523572C2.06922 0.4991 3.32877 0.500842 4.58997 0.521831C5.10196 0.52932 5.44091 0.82298 5.6386 1.30667C6.32015 2.9825 7.1541 4.5769 8.2009 6.05478C8.47966 6.44824 8.76392 6.84171 9.1687 7.11864C9.61651 7.42528 9.95746 7.32365 10.1681 6.82481C10.3018 6.50851 10.3603 6.16782 10.3905 5.82905C10.4903 4.66355 10.5034 3.50006 10.3284 2.33866C10.2209 1.61382 9.81263 1.1446 9.08937 1.00743C8.72029 0.9375 8.77524 0.800163 8.95395 0.589498C9.26433 0.226167 9.55624 0 10.1382 0H14.5022C15.1893 0.135596 15.3418 0.444235 15.4359 1.13554L15.4396 5.98311C15.4321 6.25073 15.5733 7.04488 16.0553 7.22202C16.4411 7.34812 16.6954 7.03948 16.9269 6.79485C17.9718 5.68588 18.7175 4.37529 19.3838 3.0182C19.6794 2.42148 19.9336 1.80176 20.18 1.18257C20.3625 0.72309 20.649 0.49701 21.1665 0.507025L25.3667 0.51077C25.4912 0.51077 25.6172 0.512599 25.7379 0.533239C26.4456 0.653855 26.6396 0.958314 26.421 1.64944C26.0765 2.73377 25.4064 3.6374 24.7512 4.5452C24.0507 5.5144 23.3016 6.45042 22.607 7.42537C21.9688 8.31567 22.0195 8.76443 22.8122 9.53768Z" fill="#1D1D1D"/>
</svg>
