<?xml version="1.0" encoding="utf-8"?><svg xmlns="http://www.w3.org/2000/svg" xmlns:xlink="http://www.w3.org/1999/xlink"><symbol viewBox="0 0 83 110" id="angle" xmlns="http://www.w3.org/2000/svg"><path d="M6 104V3h71M3 104h6l-6 6v-6zM77 0h6l-6 6V0z"/></symbol><symbol viewBox="0 0 29 10" id="arrow" xmlns="http://www.w3.org/2000/svg"><path d="M24.427.148a.494.494 0 00-.705 0 .498.498 0 000 .698l3.577 3.578H.494A.492.492 0 000 4.918c0 .276.219.502.494.502h26.805l-3.577 3.57a.507.507 0 000 .706.494.494 0 00.705 0l4.425-4.425a.486.486 0 000-.698L24.427.148z"/></symbol><symbol viewBox="0 0 20 20" id="basket" xmlns="http://www.w3.org/2000/svg"><path d="M18.582 9.598l.002.018a.781.781 0 00-.664.634l-1.329 7.311a.781.781 0 01-.768.642H4.158a.781.781 0 01-.769-.642l-1.329-7.31a.781.781 0 00-.664-.635l.002-.018a1.171 1.171 0 01.155-2.333h16.875a1.172 1.172 0 01.154 2.333zm-3.904 5.87v-3.125a.782.782 0 00-1.563 0v3.125a.781.781 0 101.563 0zm-3.907 0v-3.125a.782.782 0 00-1.562 0v3.125a.781.781 0 101.563 0zm-3.906 0v-3.125a.782.782 0 00-1.562 0v3.125a.781.781 0 101.562 0z"/><path d="M12.236 2.198l3.683 5.067h-1.787L10.87 2.957a.781.781 0 111.366-.759zM8.807 1.895a.78.78 0 01.303 1.062L5.85 7.265H4.062l3.683-5.067a.782.782 0 011.062-.303zM10 10a.39.39 0 100-.782.39.39 0 000 .782z"/><path d="M18.438 6.875h-2.31l-3.554-4.89a1.171 1.171 0 00-2.036 1.161.402.402 0 00.03.047l2.787 3.682h-6.71l2.787-3.682a.417.417 0 00.03-.046 1.171 1.171 0 00-2.036-1.162l-3.553 4.89h-2.31a1.563 1.563 0 00-.501 3.042.389.389 0 00.24.083.39.39 0 01.385.32l1.328 7.311a1.17 1.17 0 001.153.962h11.664a1.17 1.17 0 001.153-.962l1.33-7.31a.39.39 0 01.384-.321c.09 0 .174-.032.24-.083A1.567 1.567 0 0020 8.437c0-.861-.701-1.562-1.563-1.562zM11.21 2.747a.39.39 0 01.693-.36.364.364 0 00.025.04l3.233 4.448h-.827L11.21 2.747zm-3.14-.32a.418.418 0 00.025-.04.39.39 0 01.693.36L5.666 6.875h-.827l3.233-4.447zm10.367 6.791h-6.865a.397.397 0 00-.393.306.39.39 0 00.383.476h6.03c-.02.058-.036.118-.048.18l-1.328 7.311a.39.39 0 01-.384.321H4.168a.39.39 0 01-.385-.32L2.454 10.18a1.181 1.181 0 00-.048-.18h6.02a.4.4 0 00.398-.333.39.39 0 00-.386-.449H1.561a.782.782 0 01-.77-.907.792.792 0 01.788-.655h16.84c.409 0 .763.308.796.716a.783.783 0 01-.779.846z"/></symbol><symbol viewBox="0 0 22 22" id="instagram" xmlns="http://www.w3.org/2000/svg"><path d="M14.48 0H5.52A5.526 5.526 0 000 5.52v8.96A5.525 5.525 0 005.52 20h8.96A5.526 5.526 0 0020 14.48V5.52A5.526 5.526 0 0014.48 0zm3.746 14.48a3.75 3.75 0 01-3.745 3.745H5.519a3.749 3.749 0 01-3.745-3.744V5.519A3.749 3.749 0 015.52 1.774h8.962a3.75 3.75 0 013.745 3.745v8.962z"/><path d="M10 4.847A5.16 5.16 0 004.846 10 5.16 5.16 0 0010 15.153 5.16 5.16 0 0015.153 10 5.16 5.16 0 0010 4.847zm0 8.532A3.383 3.383 0 016.62 10 3.383 3.383 0 0110 6.621a3.383 3.383 0 013.379 3.38 3.383 3.383 0 01-3.38 3.378zm5.37-10.037a1.306 1.306 0 00-1.302 1.301 1.309 1.309 0 001.302 1.302c.343 0 .678-.14.92-.381.242-.243.381-.579.381-.92 0-.344-.139-.68-.381-.921a1.307 1.307 0 00-.92-.38z"/></symbol><symbol viewBox="0 0 20 20" id="reload" xmlns="http://www.w3.org/2000/svg"><path d="M18.835 8.836C18.835 3.964 14.872 0 10 0 5.128 0 1.164 3.964 1.164 8.836a.524.524 0 001.048 0c0-4.294 3.494-7.788 7.788-7.788 4.294 0 7.787 3.494 7.787 7.788 0 4.294-3.493 7.787-7.787 7.787h-.91l1.3-1.455a.524.524 0 00-.781-.698l-1.858 2.08a.896.896 0 000 1.195l1.858 2.08a.522.522 0 00.74.042.524.524 0 00.042-.74l-1.3-1.455H10c4.872 0 8.835-3.964 8.835-8.836z"/></symbol><symbol viewBox="0 0 200 200" id="ruble" xmlns="http://www.w3.org/2000/svg"><path d="M13.638 168.179h31.819v27.276c0 1.327.424 2.414 1.279 3.263.852.855 1.94 1.282 3.268 1.282h23.72c1.23 0 2.296-.427 3.196-1.282.9-.849 1.348-1.936 1.348-3.263v-27.276h71.733c1.324 0 2.413-.422 3.267-1.277.855-.854 1.279-1.941 1.279-3.268v-18.182c0-1.32-.424-2.414-1.279-3.263-.851-.855-1.943-1.282-3.267-1.282H78.266v-16.762h48.295c18.939 0 34.396-5.771 46.378-17.329 11.978-11.546 17.97-26.46 17.97-44.744 0-18.271-5.992-33.186-17.97-44.743C160.959 5.782 145.499 0 126.561 0h-76.56c-1.327 0-2.414.427-3.268 1.277-.852.854-1.279 1.948-1.279 3.267v89.35H13.638c-1.327 0-2.414.448-3.268 1.347-.851.9-1.279 1.965-1.279 3.196V119.6c0 1.327.425 2.414 1.28 3.268.854.855 1.938 1.276 3.267 1.276h31.819v16.762H13.638c-1.327 0-2.414.428-3.268 1.283-.851.849-1.279 1.941-1.279 3.262v18.183c0 1.327.425 2.414 1.28 3.268.853.855 1.94 1.277 3.267 1.277zm64.628-137.92h45.454c10.037 0 18.132 2.934 24.29 8.805 6.154 5.872 9.232 13.545 9.232 23.01 0 9.471-3.078 17.147-9.232 23.011-6.158 5.876-14.253 8.81-24.29 8.81H78.266V30.26z"/></symbol><symbol class="gsvg-inline--fa gfa-share gfa-w-16" viewBox="0 0 512 512" id="share" xmlns="http://www.w3.org/2000/svg"><path fill="currentColor" d="M503.691 189.836L327.687 37.851C312.281 24.546 288 35.347 288 56.015v80.053C127.371 137.907 0 170.1 0 322.326c0 61.441 39.581 122.309 83.333 154.132 13.653 9.931 33.111-2.533 28.077-18.631C66.066 312.814 132.917 274.316 288 272.085V360c0 20.7 24.3 31.453 39.687 18.164l176.004-152c11.071-9.562 11.086-26.753 0-36.328z"/></symbol><symbol viewBox="0 0 8 14" id="swiper-nav" xmlns="http://www.w3.org/2000/svg"><path d="M7.584 6.72L.979.118a.395.395 0 00-.56 0 .395.395 0 000 .56L6.742 7 .419 13.322A.399.399 0 00.698 14c.1 0 .202-.038.278-.117l6.605-6.605a.394.394 0 00.003-.557z"/></symbol><symbol viewBox="0 0 27 15" id="vk" xmlns="http://www.w3.org/2000/svg"><path fill-rule="evenodd" clip-rule="evenodd" d="M22.812 9.538c.88.858 1.807 1.666 2.596 2.61.348.42.678.854.93 1.341.358.693.034 1.455-.587 1.497l-3.861-.002c-.996.083-1.79-.318-2.459-1-.535-.544-1.03-1.123-1.544-1.686a3.66 3.66 0 00-.695-.618c-.527-.342-.984-.237-1.286.313-.306.559-.376 1.178-.406 1.801-.041.91-.316 1.148-1.23 1.19-1.952.092-3.804-.203-5.525-1.188-1.517-.868-2.694-2.093-3.718-3.48C3.033 7.613 1.507 4.644.134 1.592-.175.906.05.537.809.523a104.8 104.8 0 013.781 0c.512.007.85.301 1.049.785.681 1.675 1.515 3.27 2.562 4.748.279.393.563.787.968 1.064.448.306.788.205 1-.294.133-.316.191-.657.221-.996.1-1.165.113-2.329-.062-3.49-.107-.725-.515-1.194-1.239-1.332C8.72.937 8.775.8 8.954.59c.31-.364.602-.59 1.184-.59h4.364c.687.136.84.444.934 1.136l.004 4.847c-.008.268.133 1.062.615 1.239.386.126.64-.183.872-.427 1.045-1.11 1.79-2.42 2.457-3.777.295-.597.55-1.216.796-1.835.183-.46.469-.686.986-.676l4.2.004c.125 0 .251.002.372.022.708.12.902.425.683 1.116-.345 1.085-1.015 1.988-1.67 2.896-.7.97-1.45 1.905-2.144 2.88-.638.89-.587 1.34.205 2.113z"/></symbol></svg>